# xmcd
#
# Track frame offsets:
#	150
#	13950
#	30007
#	44099
#	62031
#	78909
#	90704
#	108720
#	121379
#	135910
#	149487
#	173104
#	191193
#	208800
#	222384
#	237382
#
# Disc length: 3454 seconds
#
# Revision: 0
# Processed by: cddbd v1.5PL3 Copyright (c) Steve Scherf et al.
# Submitted via: dBpowerAMP V4.0
#
DISCID=ed0d7c10
DTITLE=Guillermo Sanchez - Country
DYEAR=1900
DGENRE=Country
TTITLE0=Let Your Love Flow
TTITLE1=You Light Up My Life
TTITLE2=You ´re Still The One
TTITLE3=How Do I Live
TTITLE4=Sundown
TTITLE5=Jolene
TTITLE6=Lucille
TTITLE7=Stand By Your Man
TTITLE8=Darlin´
TTITLE9=Annie´s Song
TTITLE10=A New Kid In Town
TTITLE11=You Are
TTITLE12=To Make  You Feel My Love
TTITLE13=Top Of The World
TTITLE14=Take Me Home, Country Roads
TTITLE15=Lady
EXTD=Rip by Feenix
EXTT0=
EXTT1=
EXTT2=
EXTT3=
EXTT4=
EXTT5=
EXTT6=
EXTT7=
EXTT8=
EXTT9=
EXTT10=
EXTT11=
EXTT12=
EXTT13=
EXTT14=
EXTT15=
PLAYORDER=
